<?xml version="1.0" standalone="no"?>
<!DOCTYPE svg PUBLIC "-//W3C//DTD SVG 20010904//EN"
 "http://www.w3.org/TR/2001/REC-SVG-20010904/DTD/svg10.dtd">
<svg version="1.0" xmlns="http://www.w3.org/2000/svg"
 width="300.000000pt" height="300.000000pt" viewBox="0 0 997.000000 1005.000000"
 preserveAspectRatio="xMidYMid meet">

<g transform="translate(0.000000,1005.000000) scale(0.100000,-0.100000)"
fill="#000000" stroke="none">
<path d="M0 7653 l0 -2398 23 56 c71 172 149 263 684 800 l464 465 -3 685 c-3
627 -1 693 15 794 71 422 265 638 652 728 86 20 124 21 830 24 l740 4 495 493
c295 293 528 517 578 554 102 76 247 149 343 172 72 18 8 19 -2373 19 l-2448
1 0 -2397z"/>
<path d="M5125 10035 c144 -32 288 -106 442 -228 49 -38 295 -278 548 -533
l460 -464 715 -3 c682 -3 719 -4 805 -24 323 -75 511 -239 604 -528 64 -197
66 -239 63 -971 l-3 -662 421 -413 c232 -228 451 -449 488 -492 173 -202 269
-386 291 -559 5 -34 9 1052 10 2415 l1 2477 -2452 -1 c-2057 0 -2443 -3 -2393
-14z"/>
<path d="M4842 9890 c-85 -22 -183 -73 -279 -144 -38 -27 -268 -249 -513 -493
l-445 -443 273 0 273 0 24 -25 c14 -13 25 -33 25 -45 0 -12 -11 -32 -25 -45
l-24 -25 -343 0 -342 0 -251 -250 c-166 -165 -258 -250 -272 -250 -35 0 -73
38 -73 73 0 27 25 56 198 229 l197 199 -660 -4 c-631 -3 -664 -4 -755 -25 -58
-13 -130 -39 -186 -66 -189 -94 -297 -262 -338 -527 -25 -160 -29 -300 -21
-825 l7 -506 207 205 c113 113 216 208 228 212 22 6 62 -9 75 -29 4 -6 8 -25
8 -41 0 -26 -35 -65 -260 -290 l-260 -260 0 -1488 0 -1489 1054 -1054 1055
-1054 365 0 365 0 20 -26 c26 -33 26 -55 2 -85 l-19 -24 -296 -5 -296 -5 427
-431 c456 -459 523 -516 691 -596 236 -112 443 -84 683 93 52 38 250 227 524
500 l440 439 -298 0 -298 0 -24 25 c-31 30 -32 65 -2 93 23 22 27 22 393 22
l369 0 240 240 c210 210 244 240 271 240 45 0 68 -30 65 -84 0 -11 -84 -103
-188 -208 l-187 -188 599 0 c342 0 639 5 690 10 391 45 587 229 649 610 25
161 29 286 21 818 l-7 514 -227 -226 c-201 -200 -231 -226 -259 -226 -39 0
-72 30 -72 67 0 22 51 79 280 308 l280 280 0 1490 0 1490 -1052 1052 -1053
1053 -376 0 -376 0 -21 23 c-28 29 -28 68 -1 93 19 18 44 19 325 24 l305 5
-379 385 c-209 212 -417 417 -463 456 -262 221 -468 291 -687 234z m-2802
-4339 c46 -37 69 -78 79 -141 14 -89 -16 -190 -77 -256 l-29 -31 43 -41 c68
-64 114 -178 114 -284 0 -92 -63 -214 -134 -258 -45 -27 -146 -39 -163 -19
-13 17 -23 1026 -9 1047 24 38 119 29 176 -17z m2194 43 c14 -5 16 -27 16
-143 0 -75 3 -187 7 -248 l6 -113 26 0 c14 0 43 3 64 6 l37 7 0 248 c0 241 1
249 20 249 45 0 47 -18 65 -553 l18 -509 -22 -21 c-17 -17 -25 -19 -39 -11
-15 10 -18 41 -26 275 -5 178 -12 266 -20 271 -13 9 -63 10 -93 2 -21 -6 -23
-12 -23 -71 0 -36 5 -141 11 -234 12 -184 9 -219 -21 -219 -34 0 -53 110 -69
395 -8 139 -16 584 -12 663 1 13 29 16 55 6z m2585 -103 c20 -13 9 -120 -29
-261 -19 -72 -36 -173 -45 -270 -27 -267 -49 -375 -89 -425 -18 -23 -28 -27
-49 -21 -26 6 -27 9 -27 71 0 135 -47 409 -111 650 -53 198 -55 213 -36 232
15 16 18 15 36 -2 45 -40 94 -235 140 -555 l28 -195 11 55 c14 66 52 294 87
520 14 91 27 175 30 188 6 23 29 29 54 13z m-1390 -15 c16 -19 -3 -577 -24
-701 -32 -201 -93 -289 -188 -271 -68 13 -109 82 -126 211 -8 62 -18 664 -12
733 1 8 10 12 23 10 42 -6 48 -38 48 -283 0 -126 5 -299 12 -383 13 -177 24
-202 84 -202 31 0 37 4 51 38 37 87 63 373 63 693 0 86 3 159 7 162 11 12 50
8 62 -7z m326 -17 c28 -28 10 -54 -39 -54 -41 0 -50 -10 -67 -70 -22 -78 -8
-134 70 -288 80 -157 99 -231 87 -329 -9 -68 -50 -154 -87 -181 -61 -44 -154
-33 -147 16 3 19 9 22 52 23 38 1 53 6 67 23 28 34 42 97 43 183 1 76 0 79
-71 220 -80 159 -93 198 -93 279 0 155 105 256 185 178z m392 4 c54 -18 106
-78 134 -152 42 -113 51 -498 14 -635 -35 -134 -88 -182 -194 -177 -13 1 -40
18 -60 39 -68 68 -101 228 -101 487 0 251 27 406 77 445 27 21 57 20 130 -7z
m978 -4 c28 -28 10 -54 -39 -54 -41 0 -50 -10 -67 -70 -22 -78 -8 -134 70
-288 80 -157 99 -231 87 -329 -9 -68 -50 -154 -87 -181 -61 -44 -154 -33 -147
16 3 19 9 22 52 23 38 1 53 6 67 23 28 34 43 97 43 184 0 77 -2 80 -72 220
-79 158 -92 196 -92 278 0 155 105 256 185 178z m-4671 -7 c60 -34 71 -63 71
-176 0 -99 -2 -106 -36 -172 l-35 -69 14 -70 c36 -184 63 -289 92 -355 32 -73
33 -96 5 -106 -44 -17 -78 62 -129 301 -44 207 -44 206 -58 181 -13 -22 -4
-286 13 -379 12 -71 6 -97 -25 -97 -26 0 -51 24 -42 39 4 6 0 193 -9 416 -19
507 -19 471 6 496 17 17 28 19 62 14 23 -4 55 -14 71 -23z m936 3 c8 -10 8
-19 0 -34 -9 -17 -20 -21 -60 -21 -38 0 -54 -5 -69 -22 -44 -47 -60 -163 -63
-453 -3 -207 -1 -223 19 -267 26 -58 65 -80 131 -76 44 3 47 2 50 -24 5 -42
-34 -62 -102 -53 -96 11 -146 62 -172 174 -17 69 -19 465 -3 560 22 136 82
212 180 229 50 9 74 6 89 -13z m1424 -3 c60 -34 71 -63 71 -177 0 -96 -2 -107
-34 -173 l-34 -70 32 -158 c18 -92 46 -195 67 -246 38 -96 40 -121 8 -126 -45
-6 -76 69 -128 313 -20 93 -41 174 -46 179 -14 14 -13 -290 1 -374 14 -86 7
-112 -29 -108 -25 3 -27 6 -29 58 -12 303 -23 640 -25 749 -2 122 -1 134 17
147 24 18 85 11 129 -14z m-1848 6 c14 -22 3 -93 -33 -223 l-36 -130 -6 -286
c-5 -221 -9 -290 -20 -302 -17 -21 -30 -21 -51 -2 -14 12 -15 24 -9 63 11 69
11 210 -2 341 -10 98 -19 135 -60 243 -26 71 -58 158 -69 195 -20 64 -20 68
-3 80 24 18 29 17 52 -13 20 -25 70 -167 86 -242 4 -18 9 -31 12 -28 3 2 15
54 28 115 29 135 56 201 84 201 11 0 23 -5 27 -12z m696 1 c29 -6 65 -18 81
-25 59 -31 12 -88 -54 -65 -70 24 -69 27 -69 -129 l0 -140 41 0 c49 0 79 -15
79 -38 0 -30 -21 -42 -72 -42 l-48 0 0 -220 0 -219 71 -3 c55 -2 74 -7 83 -20
8 -14 7 -22 -7 -35 -13 -14 -38 -19 -100 -21 -134 -5 -122 -51 -124 472 -1
430 0 447 19 471 22 28 27 29 100 14z m3773 -5 c9 -10 13 -23 9 -33 -4 -9 -9
-79 -11 -156 l-4 -140 73 138 c92 173 115 203 150 194 14 -4 28 -13 31 -20 3
-7 -31 -71 -74 -142 -74 -124 -78 -133 -79 -190 0 -106 79 -387 137 -483 15
-26 31 -55 35 -65 11 -27 -9 -57 -37 -57 -51 0 -104 118 -165 364 -22 87 -41
161 -44 163 -3 3 -12 -19 -22 -49 -13 -40 -19 -104 -23 -263 -6 -204 -7 -210
-27 -213 -12 -2 -29 4 -38 13 -14 14 -16 49 -16 263 0 255 25 657 43 680 13
17 42 15 62 -4z m634 2 c13 -16 -5 -123 -45 -266 -26 -91 -28 -107 -32 -377
-4 -264 -5 -283 -24 -299 -15 -14 -23 -16 -36 -7 -15 9 -17 28 -14 159 6 244
-9 341 -78 525 -33 86 -64 175 -69 198 -8 36 -7 43 11 52 38 21 70 -32 119
-201 15 -52 30 -88 32 -80 3 8 15 62 27 120 27 129 52 190 78 190 11 0 25 -6
31 -14z"/>
<path d="M1935 5489 c-11 -35 6 -340 19 -336 18 6 53 64 76 123 22 60 26 133
9 167 -33 63 -91 89 -104 46z"/>
<path d="M1940 4825 c0 -222 1 -235 19 -235 29 0 84 42 109 85 21 36 23 50 19
146 -3 84 -8 115 -26 152 -26 54 -63 87 -97 87 l-24 0 0 -235z"/>
<path d="M6068 5400 c-33 -20 -39 -74 -41 -337 -2 -278 13 -404 54 -472 41
-68 104 -22 134 100 32 130 21 577 -16 651 -28 55 -89 82 -131 58z"/>
<path d="M2380 5250 c0 -93 4 -170 9 -170 11 0 35 52 50 105 6 22 11 72 11
111 0 57 -4 77 -21 98 -11 14 -27 26 -35 26 -12 0 -14 -29 -14 -170z"/>
<path d="M4740 5250 c0 -183 7 -203 41 -126 56 128 42 296 -26 296 -13 0 -15
-26 -15 -170z"/>
<path d="M6800 8582 c47 -49 474 -478 950 -953 l865 -864 8 340 c22 924 -13
1157 -200 1356 -82 87 -199 149 -343 181 -90 20 -126 22 -730 25 l-635 4 85
-89z"/>
<path d="M8757 5612 c-3 -444 -2 -1049 1 -1345 l7 -538 421 423 c231 233 442
451 468 486 63 83 131 213 151 287 20 77 20 213 0 290 -23 88 -86 208 -162
310 -75 100 -322 355 -659 681 l-221 213 -6 -807z"/>
<path d="M739 5943 c-234 -235 -448 -459 -476 -498 -105 -145 -155 -277 -155
-409 -1 -101 21 -187 72 -291 76 -152 151 -239 579 -663 l406 -403 7 691 c4
380 4 986 0 1346 l-7 655 -426 -428z"/>
<path d="M9957 4977 c-7 -74 -46 -188 -93 -274 -76 -137 -162 -233 -631 -704
l-474 -476 3 -694 c3 -683 3 -696 -19 -812 -77 -405 -270 -612 -648 -700 -86
-20 -124 -21 -830 -24 l-740 -4 -495 -493 c-521 -518 -595 -583 -755 -662
-232 -114 -440 -111 -683 9 -170 84 -265 168 -766 674 l-469 473 -658 0 c-740
0 -819 5 -991 64 -129 44 -198 86 -289 176 -125 123 -196 279 -236 515 -16
100 -18 167 -15 771 l3 662 -416 408 c-228 225 -448 446 -488 492 -117 135
-212 282 -253 392 -10 29 -13 -390 -13 -2367 l-1 -2403 4985 0 4985 0 0 2520
c0 1386 -2 2520 -4 2520 -2 0 -6 -28 -9 -63z"/>
<path d="M1305 2844 c-10 -642 5 -831 79 -1014 58 -143 157 -249 291 -311 179
-83 267 -90 975 -87 l565 3 -805 808 c-443 445 -871 871 -951 948 l-147 139
-7 -486z"/>
</g>
</svg>
